<svg width="22" height="22" viewBox="0 0 22 22" fill="none" xmlns="http://www.w3.org/2000/svg">
<mask id="mask0_0_2667" style="mask-type:alpha" maskUnits="userSpaceOnUse" x="0" y="0" width="22" height="22">
<g clip-path="url(#clip0_0_2667)">
<path d="M21.8532 10.5894C19.8536 8.15326 15.6203 5.3103 11 5.3103C6.36309 5.3103 2.12956 8.17259 0.146757 10.5894C-0.0490003 10.828 -0.0490003 11.1716 0.146757 11.4102C2.19371 13.9053 6.43699 16.6894 11 16.6894C15.7251 16.6894 19.9404 13.7406 21.8532 11.4103C22.0489 11.1716 22.0489 10.828 21.8532 10.5894ZM15.3953 10.9998C15.3953 13.4234 13.4236 15.3952 10.9999 15.3952C8.57621 15.3952 6.60449 13.4233 6.60449 10.9998C6.60449 8.57618 8.57625 6.60438 10.9999 6.60438C13.4238 6.60442 15.3953 8.57644 15.3953 10.9998ZM1.52107 11C2.24935 10.243 4.00538 8.60948 6.47046 7.56103C4.92348 9.59375 4.92287 12.4042 6.46973 14.4376C4.59546 13.6433 2.85435 12.3882 1.52107 11ZM15.5295 14.4386C17.0764 12.4058 17.077 9.59543 15.5302 7.56198C17.4044 8.35635 19.1455 9.61143 20.4789 10.9996C19.7506 11.7566 17.9945 13.3901 15.5295 14.4386Z" fill="black"/>
<path d="M8.80005 11C8.80005 12.2131 9.78694 13.2 11 13.2C12.2131 13.2 13.2 12.2131 13.2 11C13.2 9.78694 12.2131 8.80005 11 8.80005C9.78694 8.80005 8.80005 9.78694 8.80005 11ZM11.9059 11C11.9059 11.4996 11.4995 11.9059 11 11.9059C10.5005 11.9059 10.0942 11.4996 10.0942 11C10.0942 10.5005 10.5005 10.0942 11 10.0942C11.4995 10.0942 11.9059 10.5005 11.9059 11Z" fill="black"/>
<path d="M10.9997 2.80392C11.3571 2.80392 11.6468 2.51421 11.6468 2.15686V0.647059C11.6468 0.28971 11.3571 0 10.9997 0C10.6424 0 10.3527 0.28971 10.3527 0.647059V2.15686C10.3527 2.51421 10.6424 2.80392 10.9997 2.80392Z" fill="black"/>
<path d="M14.8604 3.66926C15.1706 3.84621 15.5659 3.73833 15.743 3.42774L16.6041 1.91793C16.7812 1.60752 16.6731 1.21238 16.3627 1.0353C16.0521 0.858268 15.6571 0.966327 15.48 1.27683L14.6189 2.78663C14.4419 3.097 14.55 3.49219 14.8604 3.66926Z" fill="black"/>
<path d="M6.25675 3.42797C6.43379 3.73839 6.82893 3.84649 7.13939 3.66946C7.4498 3.49242 7.5579 3.09724 7.38087 2.78683L6.51976 1.27702C6.34273 0.966606 5.9475 0.858504 5.63713 1.03554C5.32671 1.21258 5.21861 1.60776 5.39565 1.91817L6.25675 3.42797Z" fill="black"/>
<path d="M10.9997 19.196C10.6424 19.196 10.3527 19.4858 10.3527 19.8431V21.3529C10.3527 21.7103 10.6424 22 10.9997 22C11.3571 22 11.6468 21.7103 11.6468 21.3529V19.8431C11.6468 19.4858 11.3571 19.196 10.9997 19.196Z" fill="black"/>
<path d="M7.13938 18.3307C6.82897 18.1537 6.43383 18.2618 6.25675 18.5722L5.39565 20.082C5.21861 20.3924 5.32671 20.7876 5.63713 20.9646C5.94759 21.1416 6.34272 21.0335 6.51976 20.7231L7.38086 19.2133C7.55794 18.9029 7.4498 18.5077 7.13938 18.3307Z" fill="black"/>
<path d="M15.743 18.5722C15.566 18.2617 15.1707 18.1537 14.8604 18.3307C14.55 18.5077 14.4419 18.9029 14.6189 19.2133L15.48 20.7231C15.657 21.0335 16.0522 21.1417 16.3627 20.9646C16.6731 20.7876 16.7812 20.3924 16.6041 20.082L15.743 18.5722Z" fill="black"/>
</g>
</mask>
<g mask="url(#mask0_0_2667)">
<path d="M0 0H22V22H0V0Z" fill="white"/>
</g>
<defs>
<clipPath id="clip0_0_2667">
<rect width="22" height="22" fill="white"/>
</clipPath>
</defs>
</svg>
