<svg width="20" height="24" viewBox="0 0 20 24" fill="none" xmlns="http://www.w3.org/2000/svg">
<path d="M9.7361 12.4119C12.7409 12.4119 15.1764 9.9762 15.1764 6.97158C15.1764 3.9671 12.7409 1.53125 9.7361 1.53125C6.73163 1.53125 4.29578 3.9671 4.29578 6.97158C4.29809 9.97519 6.73249 12.4096 9.7361 12.4119ZM9.7361 2.45332C12.2316 2.45332 14.2544 4.47612 14.2544 6.97158C14.2544 9.46704 12.2316 11.4898 9.7361 11.4898C7.24094 11.4898 5.21784 9.46704 5.21784 6.97158C5.22203 4.478 7.24252 2.45736 9.7361 2.45332Z" fill="#F37060"/>
<path fill-rule="evenodd" clip-rule="evenodd" d="M3.71448 6.97181C3.71448 3.6463 6.41058 0.950195 9.73609 0.950195C13.0619 0.950195 15.7577 3.64632 15.7577 6.97181C15.7577 10.2975 13.0619 12.9934 9.73609 12.9934V12.4121L9.73565 12.9934C6.41135 12.9909 3.71703 10.2966 3.71448 6.97226L3.71448 6.97181ZM13.6731 6.97181C13.6731 4.79754 11.9107 3.03507 9.73653 3.03484C7.56368 3.03864 5.80304 4.79935 5.79912 6.97229C5.79938 9.14647 7.5621 10.9088 9.73609 10.9088C11.9105 10.9088 13.6731 9.14624 13.6731 6.97181Z" fill="#F37060"/>
<path d="M9.736 13.772C7.37101 13.772 5.1717 14.6894 3.53971 16.3585C1.88449 18.0505 0.976135 20.3602 0.976135 22.8685C0.976857 23.1228 1.18295 23.3288 1.43724 23.3295H18.0349C18.2893 23.3288 18.4951 23.1228 18.4959 22.8685C18.4959 20.365 17.5876 18.0505 15.9326 16.3631C14.3004 14.694 12.1013 13.772 9.736 13.772ZM1.90758 22.4074C2.00904 20.3236 2.8158 18.4194 4.19435 17.0085C5.65127 15.5193 7.61996 14.6988 9.73152 14.6988C11.8431 14.6988 13.8118 15.5193 15.2685 17.0085C16.6517 18.4194 17.454 20.3236 17.5555 22.4074H1.90758Z" fill="#F37060"/>
<path fill-rule="evenodd" clip-rule="evenodd" d="M3.12417 15.9522C4.86723 14.1696 7.21709 13.1909 9.73598 13.1909C12.2559 13.1909 14.6052 14.1747 16.3479 15.9566C18.1168 17.7603 19.0771 20.2241 19.0771 22.8688L19.0771 22.8704C19.0755 23.4444 18.6108 23.9094 18.0365 23.911L18.0349 23.911H1.43723L1.43558 23.911C0.861775 23.9094 0.396468 23.4447 0.394839 22.8704L0.394836 22.8688C0.394836 20.2189 1.35564 17.7602 3.12408 15.9523M4.61011 17.415C5.95584 16.0395 7.77385 15.2803 9.73151 15.2803ZM9.73151 15.2803C11.6893 15.2803 13.5074 16.0396 14.853 17.4152ZM16.9233 21.8264C16.7162 20.1178 15.9958 18.5809 14.8534 17.4157L14.853 17.4152M16.9233 21.8264H2.5399C2.74756 20.1184 3.47078 18.5812 4.60986 17.4153" fill="#F37060"/>
</svg>
