<svg width="24" height="20" viewBox="0 0 24 20" fill="none" xmlns="http://www.w3.org/2000/svg">
<path d="M2.42468 8.54228C8.59457 5.85695 12.7088 4.08661 14.7674 3.23127C20.645 0.789109 21.8663 0.364879 22.6623 0.350722C22.8374 0.34779 23.2289 0.391135 23.4825 0.596681C23.6966 0.770241 23.7555 1.00469 23.7837 1.16925C23.8119 1.3338 23.847 1.70866 23.8191 2.00156C23.5006 5.34469 22.1224 13.4576 21.4212 17.202C21.1245 18.7864 20.5404 19.3176 19.9748 19.3696C18.7458 19.4826 17.8125 18.5582 16.6221 17.7787C14.7593 16.5589 13.707 15.7995 11.8988 14.6093C9.80924 13.2337 11.1638 12.4776 12.3547 11.242C12.6664 10.9187 18.0816 5.99817 18.1864 5.5518C18.1996 5.49598 18.2117 5.28788 18.088 5.178C17.9642 5.06812 17.7816 5.1057 17.6498 5.13558C17.4629 5.17794 14.4872 7.14278 8.72245 11.0301C7.87778 11.6095 7.11271 11.8918 6.42724 11.877C5.67156 11.8607 4.21792 11.4502 3.1373 11.0993C1.81187 10.6689 0.758443 10.4413 0.850173 9.71037C0.897951 9.32965 1.42279 8.94028 2.42468 8.54228Z" fill="white"/>
</svg>
