<svg width="31" height="32" viewBox="0 0 31 32" fill="none" xmlns="http://www.w3.org/2000/svg">
<path fill-rule="evenodd" clip-rule="evenodd" d="M25.9766 5.35387C23.1116 2.49178 19.2915 0.965332 15.2804 0.965332C6.87616 0.965332 0 7.83435 0 16.2298C0 18.9011 0.76403 21.5724 2.10106 23.8621L0 31.4943L8.02221 29.3954C10.3143 30.5403 12.7973 31.3035 15.2804 31.3035C23.6846 31.3035 30.5607 24.4345 30.5607 16.039C30.5607 12.0321 28.8417 8.21596 25.9766 5.35387ZM15.2804 28.823C12.9883 28.823 10.6963 28.2506 8.78622 27.1058L8.40419 26.915L3.62907 28.2506L4.96613 23.6712L4.5841 23.0988C3.24707 21 2.67405 18.7103 2.67405 16.4206C2.67405 9.5516 8.4042 3.82742 15.2804 3.82742C18.7184 3.82742 21.7745 5.16306 24.2576 7.45274C26.7407 9.93322 27.8867 12.9861 27.8867 16.4206C27.8867 23.0988 22.3475 28.823 15.2804 28.823ZM22.1565 19.2827C21.7745 19.0919 19.8645 18.1379 19.4825 18.1379C19.1005 17.9471 18.9094 17.9471 18.7184 18.3287C18.5274 18.7103 17.7634 19.4735 17.5724 19.8551C17.3814 20.0459 17.1904 20.0459 16.8084 20.0459C16.4264 19.8551 15.2804 19.4735 13.7523 18.1379C12.6063 17.1838 11.8423 15.8482 11.6513 15.4666C11.4603 15.085 11.6513 14.8942 11.8423 14.7034C12.0333 14.5126 12.2243 14.3218 12.4153 14.1309C12.6063 13.9401 12.6063 13.7493 12.7973 13.5585C12.9883 13.3677 12.7973 13.1769 12.7973 12.9861C12.7973 12.7953 12.0333 10.8872 11.6513 10.124C11.4603 9.5516 11.0783 9.5516 10.8873 9.5516C10.6963 9.5516 10.5052 9.5516 10.1232 9.5516C9.93221 9.5516 9.5502 9.5516 9.16819 9.93322C8.78619 10.3148 7.8312 11.2689 7.8312 13.1769C7.8312 15.085 9.16821 16.8022 9.35921 17.1838C9.55021 17.3747 12.0333 21.3816 15.8534 22.908C19.1004 24.2437 19.6735 23.8621 20.4375 23.8621C21.2015 23.8621 22.7295 22.908 22.9205 22.1448C23.3026 21.1908 23.3026 20.4275 23.1116 20.4275C22.9206 19.4735 22.5385 19.4735 22.1565 19.2827Z" fill="white"/>
</svg>
