<svg width="208" height="54" viewBox="0 0 208 54" fill="none" xmlns="http://www.w3.org/2000/svg">
<path d="M134.956 1.69442C135.462 1.74192 135.967 1.80611 136.474 1.85364L138.867 2.12846C140.328 2.31582 141.787 2.51984 143.215 2.77119C144.829 3.04006 146.465 3.36122 148.008 3.82459C149.368 4.22063 150.724 4.66627 152.053 5.10988C151.373 4.91161 150.72 4.71635 150.039 4.51832C149.332 4.31779 148.652 4.11977 147.944 3.93593C147.235 3.75208 146.527 3.56824 145.787 3.43171C145.154 3.30521 144.519 3.19538 143.884 3.08554L143.937 3.09056C142.005 2.77502 140.039 2.52347 138.069 2.32174C137.138 2.21781 136.205 2.13028 135.273 2.04278L134.34 1.95525C132.872 1.85087 131.431 1.73253 129.963 1.62815C128.628 1.53651 127.267 1.42567 125.932 1.33377C125.372 1.28128 124.783 1.25939 124.22 1.24028C121.328 1.11967 118.438 0.982664 115.548 0.845624C115.094 0.819833 114.638 0.810452 114.182 0.801323L109.997 0.710426C107.637 0.656523 105.303 0.605157 102.943 0.551254C100.764 0.564957 98.584 0.595068 96.4039 0.62518C94.9512 0.639635 93.47 0.668496 92.0174 0.682952L90.6443 0.70513L90.2398 0.717427C85.9425 0.968014 81.6203 1.19943 77.323 1.45027C77.2148 1.4567 77.0798 1.46087 76.9436 1.48177C82.2454 1.15512 87.5681 1.00018 92.8997 1.01729C94.6191 1.02761 96.3633 1.05736 98.0811 1.08438C98.8053 1.10207 99.531 1.10308 100.254 1.13721C101.271 1.18239 102.286 1.24429 103.303 1.28947L112.533 1.75305L113.737 1.81577C113.845 1.80905 113.925 1.81658 114.032 1.82656C114.966 1.89765 115.898 1.98515 116.831 2.07268C119.95 2.34851 123.041 2.63856 126.133 2.91191L127.838 3.07194C128.714 3.18784 129.566 3.28431 130.415 3.39769C133.496 3.78737 136.553 4.1581 139.634 4.54778C140.061 4.58781 140.512 4.64699 140.937 4.70368L142.766 4.97586C145.999 5.46374 149.23 5.98474 152.452 6.58895C158.869 7.81157 165.209 9.27851 171.274 11.1051C174.253 11.9815 177.202 12.9293 180.12 13.9472C183.009 14.9561 185.866 16.0121 188.606 17.1749C190.006 17.7614 191.392 18.3721 192.762 19.0067C193.999 19.5754 195.232 20.1774 196.408 20.8245C197.644 21.4874 198.842 22.1985 199.998 22.9553C201.063 23.642 202.098 24.3595 202.993 25.131C203.963 25.9596 204.876 26.8333 205.624 27.7421C205.959 28.1759 206.295 28.6097 206.576 29.0552C206.858 29.4842 207.112 29.927 207.286 30.3627C207.479 30.8839 207.644 31.419 207.729 31.9467C207.795 32.3891 207.833 32.8452 207.817 33.2963C207.785 34.2155 207.567 35.1005 207.112 35.9463C206.845 36.4521 206.53 36.9384 206.169 37.4005C205.863 37.791 205.532 38.179 205.149 38.5288C204.385 39.2283 203.49 39.8821 202.545 40.4976C201.486 41.1862 200.353 41.8009 199.117 42.3724C197.96 42.906 196.775 43.3989 195.565 43.8498C192.973 44.8306 190.232 45.6801 187.422 46.4055C184.558 47.1429 181.624 47.7561 178.642 48.3146C175.605 48.8847 172.494 49.3808 169.361 49.8246C167.863 50.0361 166.336 50.2617 164.816 50.4209C161.965 50.7235 159.141 51.0284 156.291 51.3311C155.042 51.4654 153.821 51.5856 152.572 51.7199C152.219 51.7539 151.866 51.7879 151.487 51.8191C146.618 52.1502 141.72 52.4955 136.851 52.8266C136.743 52.8333 136.608 52.8375 136.5 52.8439L135.367 52.8886L131.238 53.0545C128.245 53.1591 125.277 53.2831 122.282 53.4044C121.851 53.4142 121.418 53.4407 120.987 53.4505C120.179 53.4754 119.345 53.4808 118.537 53.489C115.371 53.5286 112.205 53.5668 109.038 53.6035C107.855 53.6098 106.697 53.6353 105.514 53.6416C105.084 53.635 104.653 53.6448 104.224 53.638C101.675 53.5832 99.1017 53.5093 96.5535 53.4547C93.8718 53.3875 91.1621 53.3345 88.4804 53.2672C88.1589 53.2539 87.8377 53.2404 87.4898 53.2246C86.3677 53.1529 85.2173 53.0952 84.0949 53.0233C80.9149 52.8257 77.7065 52.6419 74.5265 52.444C73.6976 52.3997 72.8432 52.3363 72.0143 52.2922L70.6285 52.1622C67.563 51.8911 64.5253 51.606 61.4597 51.3352C60.1806 51.2152 58.927 51.1144 57.6479 50.9943C56.1543 50.8707 54.6386 50.6951 53.1496 50.5219C49.7719 50.1379 46.3976 49.7205 43.0323 49.2036C39.7989 48.7157 36.5419 48.192 33.3225 47.5546C31.6641 47.2297 30.0122 46.8789 28.3676 46.5027C26.8795 46.1658 25.399 45.8034 23.927 45.4155C22.3533 44.9995 20.8094 44.5528 19.2985 44.0421C17.9691 43.5987 16.6413 43.1389 15.3717 42.634C13.9733 42.0668 12.6032 41.4857 11.2945 40.8263C10.1125 40.2458 8.98685 39.6373 7.92091 38.9671C6.7527 38.237 5.66937 37.4647 4.72721 36.6219C3.8836 35.8721 3.09814 35.0774 2.45043 34.2454C1.75736 33.3252 1.17375 32.3817 0.781653 31.406C0.409767 30.4992 0.174061 29.5717 0.10004 28.6425C-0.0371114 26.668 0.444504 24.6843 1.5283 22.8747C2.54957 21.1598 4.04249 19.5728 5.89259 18.1871C7.74299 16.8015 9.87381 15.5762 12.1554 14.466C14.4366 13.3553 16.897 12.3453 19.426 11.4594C22.0666 10.5336 24.8309 9.71979 27.617 8.95849C30.4864 8.1716 33.3761 7.45344 36.2878 6.7876C37.1372 6.61578 37.9615 6.42501 38.7843 6.25068C38.922 6.21334 39.0586 6.19248 39.223 6.15766C39.532 6.09328 39.8423 6.03302 40.154 5.9769C42.9733 5.43658 45.791 4.91296 48.6103 4.37265L51.0736 3.89969C51.2116 3.86239 51.3746 3.84401 51.5375 3.82588C51.9451 3.7802 52.3276 3.71557 52.7349 3.66987C55.6484 3.27258 58.5898 2.86133 61.53 2.46655C62.3198 2.35622 63.0812 2.26007 63.8713 2.14951C64.0343 2.13138 64.1689 2.12718 64.3321 2.10908C64.7662 2.06588 65.227 2.02544 65.6611 1.98224C68.6715 1.69457 71.709 1.40944 74.7194 1.12202L77.0797 0.890939C77.2426 0.872554 77.404 0.871114 77.5653 0.86942L78.9431 0.797423C81.9678 0.645278 85.0207 0.479204 88.0722 0.329568C88.5846 0.310558 89.0989 0.274887 89.6113 0.25613C89.7459 0.251927 89.9091 0.233572 90.0705 0.232132C90.8761 0.240636 91.6565 0.22994 92.4637 0.222006C95.5309 0.190954 98.5699 0.174588 101.61 0.141279C102.121 0.13896 102.607 0.117442 103.09 0.12908C104.162 0.16284 105.209 0.17715 106.281 0.210658C109.122 0.292861 111.939 0.355864 114.78 0.438067C115.29 0.452467 115.771 0.480767 116.279 0.511858C117.803 0.587848 119.302 0.661357 120.827 0.737122C122.219 0.800906 123.636 0.883354 125.027 0.947109C125.242 0.950433 125.483 0.956491 125.696 0.976477C125.989 1.00399 126.311 1.01729 126.604 1.04481C129.245 1.25896 131.861 1.45419 134.502 1.6686C134.688 1.6861 134.848 1.7011 134.956 1.69442ZM92.8659 2.52311C92.9474 2.51392 93.054 2.52393 93.1622 2.5175C80.1271 2.50146 67.2413 3.47192 54.8987 5.53293C54.8987 5.53217 54.8987 5.53141 54.8989 5.53066C54.8922 5.53233 54.8854 5.53169 54.8719 5.53042C54.7905 5.53936 54.7074 5.56524 54.626 5.57444C54.7074 5.56524 54.7622 5.55354 54.8436 5.54435C50.1988 6.34934 45.5975 7.25893 41.1644 8.38533C36.7592 9.49777 32.4982 10.7916 28.457 12.3237C25.9199 13.2928 23.4537 14.3691 21.1911 15.5652C20.0034 16.1915 18.8659 16.856 17.7535 17.5397C16.7836 18.1362 15.7856 18.7466 14.8642 19.3979C14.3175 19.7826 13.7692 20.1837 13.2741 20.5901C13.0109 20.817 12.7463 21.0602 12.4829 21.2871C12.337 21.4076 12.1915 21.5281 12.0724 21.6509C11.7169 22.0032 11.3893 22.3414 11.0354 22.6771C10.4433 23.2585 9.85263 23.8235 9.33881 24.4291C9.58305 23.8319 9.88048 23.2394 10.2046 22.6494C10.3362 22.3933 10.4943 22.14 10.6259 21.884C10.8184 21.55 11.011 21.216 11.2303 20.8846C11.755 20.1623 12.3034 19.4763 12.9833 18.8191C13.6616 18.1784 14.3651 17.5569 15.1718 16.9787C16.0102 16.3533 16.9 15.7493 17.8652 15.2028C18.7459 14.6987 19.6515 14.2135 20.6089 13.75C23.0034 12.5831 25.548 11.5308 28.1914 10.5716C30.9313 9.58677 33.723 8.69646 36.5595 7.90294C38.6497 7.31962 40.7614 6.78532 42.8922 6.30069C42.1804 6.43544 41.4675 6.58615 40.756 6.72067C40.4818 6.77886 40.2091 6.82037 39.9348 6.87831C39.5244 6.95714 39.1121 7.05264 38.7001 7.14817C36.4691 7.64391 34.2508 8.17356 32.0462 8.73686C29.7737 9.32163 27.5192 9.94866 25.2843 10.6175C23.1826 11.2417 21.158 11.9068 19.1806 12.6435C15.1378 14.1923 11.3394 15.9989 8.14926 18.1976C6.50755 19.3681 5.12261 20.6635 4.02307 22.0693C3.62768 22.6072 3.27866 23.1683 2.97848 23.7486C2.7075 24.3434 2.46355 24.9409 2.27089 25.5601C2.1081 26.1484 1.99724 26.7582 1.9678 27.3593C1.91635 27.9075 1.94633 28.4471 2.00122 29.0053C2.08623 29.5332 2.1977 30.0634 2.39062 30.5845C2.5756 31.1306 2.80363 31.6672 3.07323 32.191C3.39796 32.7414 3.74915 33.294 4.18365 33.821C4.64146 34.3839 5.12759 34.9324 5.66997 35.4529C6.26429 35.9949 6.8869 36.5228 7.5658 37.0225C8.31417 37.5557 9.09214 38.0595 9.89696 38.5321C11.2854 39.3208 12.7253 40.0437 14.2094 40.6973C15.69 41.3403 17.2049 41.9245 18.749 42.4479C20.3134 42.9636 21.8793 43.4628 23.4782 43.8978C25.0504 44.3303 26.6805 44.718 28.2857 45.0868C30.0488 45.4869 31.8138 45.8704 33.6102 46.2066C35.2732 46.5305 36.9393 46.8208 38.6334 47.0974C41.8641 47.6184 45.1258 48.0921 48.3935 48.4995C50.0158 48.6852 51.6366 48.8875 53.2602 49.0567C54.058 49.1484 54.8841 49.226 55.6819 49.3174C56.1066 49.3741 56.5064 49.4116 56.9327 49.4516L63.7584 50.0419L71.6765 50.7347C72.0496 50.7697 72.3975 50.7855 72.7454 50.8013C73.8675 50.8732 75.0179 50.9309 76.1403 51.0026L85.6851 51.5462C86.4609 51.5856 87.2618 51.6439 88.0643 51.6855C88.1709 51.6955 88.2791 51.6891 88.3857 51.6991C88.7352 51.6982 89.0831 51.7141 89.4326 51.7134C94.4229 51.8128 99.4116 51.9289 104.402 52.0283C108.414 51.9523 112.449 51.9115 116.46 51.8522C117.59 51.8409 118.748 51.8154 119.878 51.8041C120.201 51.8007 120.551 51.8001 120.875 51.7802C123.546 51.6785 126.191 51.5582 128.862 51.4565C131.29 51.3659 133.692 51.2559 136.12 51.1651C136.524 51.1528 136.958 51.1098 137.364 51.0808C138.663 50.9846 139.988 50.9079 141.287 50.8117C144.236 50.6022 147.158 50.407 150.107 50.1975C150.541 50.1543 150.972 50.1445 151.38 50.099L154.149 49.8056L163.19 48.8432C163.924 48.761 164.655 48.6955 165.391 48.5969C168.465 48.1979 171.517 47.7633 174.548 47.2597C176.35 46.9594 178.128 46.6232 179.909 46.2706C181.553 45.9386 183.198 45.5899 184.822 45.189C188.067 44.4037 191.218 43.4756 194.172 42.3612C195.54 41.8189 196.882 41.2741 198.151 40.6385C198.799 40.3139 199.421 39.9866 200.02 39.6236C200.469 39.3515 200.908 39.0684 201.336 38.7746C201.901 38.397 202.425 37.9808 202.904 37.5301C203.317 37.1497 203.65 36.745 203.984 36.3403C204.284 35.9559 204.538 35.5474 204.743 35.1205C204.908 34.8007 205.019 34.4759 205.13 34.1509C205.218 33.7902 205.277 33.4437 205.283 33.0922C205.291 32.724 205.297 32.3726 205.25 32.0158C205.202 31.6759 205.126 31.3383 205.022 31.0054C204.895 30.6376 204.74 30.2759 204.559 29.9223C204.235 29.372 203.882 28.8358 203.446 28.3255C203.013 27.782 202.498 27.2475 201.983 26.7297C200.302 25.1635 198.201 23.7757 195.984 22.4779C194.658 21.7164 193.272 21.0162 191.857 20.3468C190.388 19.6725 188.893 18.9957 187.392 18.3686C184.367 17.0954 181.251 15.9312 178.1 14.8475C173.151 13.1591 168.077 11.6602 162.875 10.384C160.221 9.73239 157.535 9.14506 154.845 8.59084C152.127 8.05082 149.405 7.56066 146.679 7.10359L146.684 7.10411C145.61 6.93951 144.518 6.76124 143.447 6.59899C142.944 6.51837 142.412 6.45167 141.882 6.36853C141.618 6.32683 141.354 6.26845 141.088 6.24345C140.662 6.20344 140.237 6.14701 139.812 6.09031C137.767 5.83127 135.746 5.59143 133.701 5.33238C131.867 5.11004 130.061 4.87349 128.254 4.65366C127.538 4.55277 126.817 4.50194 126.071 4.43195C122.952 4.15609 119.861 3.86604 116.769 3.59244C115.835 3.5216 114.902 3.4341 113.969 3.34657C113.836 3.33408 113.728 3.34076 113.622 3.33075C113.247 3.31246 112.846 3.29138 112.471 3.27306L103.241 2.80923C102.224 2.7643 101.208 2.70265 100.192 2.65722L100.005 2.63971C99.2009 2.61452 98.4236 2.59209 97.618 2.58333C96.0348 2.55211 94.424 2.53513 92.8659 2.52311ZM146.79 7.1201C146.846 7.13049 146.908 7.14191 146.97 7.14776L146.789 7.12007L146.79 7.1201ZM54.9263 5.51894C54.9263 5.51894 54.9023 5.5167 54.8985 5.53088C54.9085 5.52803 54.9178 5.52401 54.9263 5.51894ZM146.684 7.1043L146.789 7.12029C146.754 7.11375 146.719 7.10842 146.684 7.10433L146.684 7.1043ZM177.916 14.7971C177.897 14.791 177.877 14.785 177.864 14.7754L177.916 14.7971ZM177.968 14.8186L177.916 14.7971C177.935 14.8016 177.952 14.8089 177.968 14.8186ZM14.7633 19.4721C14.7764 19.4612 14.7908 19.4513 14.8063 19.4428L14.7633 19.4721ZM14.7202 19.5018L14.7633 19.4721C14.7486 19.4835 14.7342 19.4947 14.7202 19.5018ZM3.96803 22.0809C3.95403 22.088 3.94609 22.1001 3.93816 22.1118L3.96803 22.0809ZM3.93816 22.1118L3.90862 22.1425C3.92154 22.1347 3.9317 22.1242 3.93814 22.1121L3.93816 22.1118ZM9.71976 38.415C9.74493 38.4342 9.77136 38.4366 9.7698 38.4533L9.71976 38.415ZM54.8156 5.55856C54.8436 5.54435 54.8436 5.54435 54.8704 5.54686L54.8156 5.55856Z" fill="#10B899"/>
</svg>
