<svg width="21" height="20" viewBox="0 0 21 20" fill="none" xmlns="http://www.w3.org/2000/svg">
<path d="M13.701 9.8046L9.75567 7.08726C9.61088 6.98781 9.41868 6.97284 9.25998 7.05011C9.10002 7.12679 9.00012 7.28255 9.00012 7.45089V12.8838C9.00012 13.0539 9.10002 13.2091 9.25998 13.2857C9.32763 13.3181 9.40161 13.3343 9.47621 13.3343C9.57358 13.3343 9.67221 13.3049 9.75567 13.2468L13.701 10.5319C13.8255 10.445 13.8982 10.3108 13.8982 10.1682C13.8989 10.0233 13.8243 9.88967 13.701 9.8046Z" fill="#2E2E2E"/>
<path d="M11.0004 1C6.02887 1 2.00012 5.02929 2.00012 10.0015C2.00012 14.9719 6.02887 19 11.0004 19C15.9708 19 20.0001 14.9713 20.0001 10.0015C20.0007 5.02929 15.9708 1 11.0004 1ZM11.0004 17.4982C6.86026 17.4982 3.50357 14.1428 3.50357 10.0015C3.50357 5.86198 6.86026 2.50245 11.0004 2.50245C15.14 2.50245 18.4961 5.86138 18.4961 10.0015C18.4967 14.1428 15.14 17.4982 11.0004 17.4982Z" fill="#2E2E2E"/>
</svg>
