<svg width="37" height="37" viewBox="0 0 37 37" fill="none" xmlns="http://www.w3.org/2000/svg">
<circle cx="18.6834" cy="18.0742" r="18.0742" fill="#10B899"/>
<path fill-rule="evenodd" clip-rule="evenodd" d="M26.7756 18.2959C26.3248 15.1608 24.3686 11.4363 21.6518 9.39138C20.5388 8.5537 19.1796 8.00936 17.9285 7.88502C14.8378 7.57653 12.0836 10.1529 11.2584 12.9795C10.1274 16.7421 11.1718 21.7644 14.8542 25.5658C14.8546 25.5662 14.8553 25.567 14.8557 25.5674C14.8565 25.5689 14.8573 25.5701 14.8585 25.5712C14.8616 25.574 14.8643 25.5763 14.8674 25.579C15.0956 25.8114 15.5406 26.1774 15.8908 26.4214C17.4001 27.5866 18.8883 28.3236 21.0844 28.3442C23.2247 28.3641 23.8058 27.3438 22.9162 25.4481C21.8375 23.1503 19.9589 23.8788 18.0592 21.614C17.4687 20.9096 16.9894 20.1037 16.6131 19.254C15.0581 15.7444 15.5722 12.1391 17.7612 11.2024C19.9507 10.2652 22.637 12.2094 24.1923 15.7191C24.5858 16.6073 24.8732 17.3921 25.0417 18.2399C25.225 19.1608 25.6029 19.2738 26.12 19.5831C26.7273 19.946 26.9242 19.3286 26.7756 18.2959Z" fill="white"/>
<path fill-rule="evenodd" clip-rule="evenodd" d="M18.6315 15.4686C19.5231 15.0874 20.759 15.9364 21.3923 17.3654C22.0253 18.7945 21.8158 20.262 20.9247 20.6439C20.0332 21.0247 18.7973 20.1757 18.1643 18.7467C17.5313 17.3176 17.74 15.8501 18.6315 15.4686Z" fill="white"/>
<path fill-rule="evenodd" clip-rule="evenodd" d="M24.4065 25.7972C24.8097 26.6415 25.2372 26.3715 25.2173 25.5198C25.2048 24.9875 25.1857 24.8869 25.1604 24.32C25.1373 23.8071 25.1646 23.2795 25.6759 23.1633C25.8124 23.1326 25.9431 23.1124 26.2091 23.0518C26.4489 22.9974 26.5811 22.9473 26.6209 22.863C26.7094 22.6745 26.5253 22.4519 26.1556 22.2677C25.4614 21.9215 24.6998 21.5563 23.8281 21.1884C22.937 20.8111 22.6086 20.6269 22.4374 20.78C22.2794 20.9211 22.4495 21.2696 22.9155 22.3843C23.451 23.6661 24.1779 25.3003 24.4065 25.7972Z" fill="white"/>
<path fill-rule="evenodd" clip-rule="evenodd" d="M21.3551 9.18728C21.8422 9.50821 22.4763 9.99155 22.9946 10.5048C25.0152 12.5073 26.3704 15.4816 26.7749 18.2946C26.8185 18.5977 26.8973 19.1871 26.8922 19.5294C26.8794 20.355 26.5853 20.9918 26.092 20.9118C25.5276 20.8197 25.2375 20.3356 25.2149 19.7295C25.1965 19.2325 25.1205 18.6404 25.0409 18.2386C24.8724 17.3909 24.585 16.606 24.1915 15.7178C22.6366 12.2082 19.9495 10.2647 17.7604 11.2011C16.631 11.6836 16.0523 12.9685 15.86 14.1388C15.3838 17.0346 16.6057 20.3146 19.1816 22.6552C13.5352 19.5309 12.9323 11.7695 15.9239 9.2646C17.3868 8.03915 19.0463 7.66576 21.3551 9.18728Z" fill="white"/>
</svg>
