<svg width="91" height="60" viewBox="0 0 91 60" fill="none" xmlns="http://www.w3.org/2000/svg">
<mask id="path-1-inside-1_480_1192" fill="white">
<path d="M66.81 2.7285C67.0153 2.78913 67.2153 2.86798 67.4208 2.92866L68.3776 3.27026C68.9561 3.5002 69.5292 3.74832 70.0755 4.04765C70.6975 4.36932 71.3142 4.74853 71.8502 5.28155C72.3266 5.73786 72.7871 6.24829 73.2365 6.75604C72.9984 6.52761 72.7709 6.30294 72.5328 6.07479C72.2837 5.84343 72.0455 5.61528 71.7911 5.40214C71.5367 5.189 71.2823 4.97586 71.001 4.81389C70.7631 4.66472 70.5197 4.53374 70.2762 4.40276L70.2979 4.40916C69.5516 4.03099 68.7731 3.72219 67.9784 3.46777C67.6054 3.33813 67.227 3.2264 66.8487 3.1147L66.4703 3.00296C65.8651 2.86358 65.2759 2.70943 64.6707 2.57004C64.1194 2.44688 63.5627 2.3023 63.0115 2.17886C62.7846 2.11185 62.536 2.07776 62.2983 2.04719C61.0825 1.86556 59.8722 1.66602 58.6618 1.46645C58.4727 1.43044 58.2783 1.41233 58.0837 1.39449L56.3009 1.22306C55.296 1.12348 54.3021 1.02714 53.2971 0.927561C52.3519 0.905012 51.4012 0.900365 50.4506 0.89572C49.8188 0.886495 49.1705 0.892524 48.5387 0.883299L47.9391 0.883886L47.7608 0.890357C45.8331 1.09022 43.9001 1.26869 41.9723 1.46883C41.9237 1.47399 41.8643 1.47623 41.7995 1.49672C44.1827 1.23103 46.5266 1.15337 48.8258 1.26392C49.5659 1.30482 50.3113 1.36739 51.0461 1.42651C51.354 1.45832 51.6674 1.47192 51.97 1.52167C52.3968 1.58858 52.8183 1.67373 53.2451 1.74063L57.1032 2.40631L57.6058 2.49559C57.6544 2.49012 57.6869 2.49972 57.73 2.51246C58.1138 2.60626 58.4921 2.71796 58.8705 2.82969C60.1406 3.1849 61.3946 3.55515 62.654 3.90719L63.3459 4.11148C63.6918 4.25324 64.0325 4.37334 64.3677 4.5119C65.5896 4.99089 66.8059 5.44875 68.0278 5.92774C68.2008 5.97884 68.3791 6.05128 68.5467 6.12056L69.2606 6.44957C70.5205 7.03851 71.7698 7.6636 72.9922 8.3795C75.4209 9.82633 77.7477 11.5389 79.8541 13.6398C80.8944 14.649 81.9021 15.7357 82.876 16.8985C83.8403 18.051 84.7779 19.2544 85.6345 20.5725C86.0742 21.2376 86.5009 21.929 86.9143 22.6462C87.2887 23.289 87.6522 23.9683 87.978 24.6958C88.3253 25.4417 88.6428 26.2396 88.9293 27.0866C89.1958 27.8554 89.4409 28.6575 89.6105 29.5162C89.7965 30.4386 89.9447 31.4092 90.0121 32.4153C90.0348 32.8952 90.0577 33.3751 90.0536 33.8669C90.0547 34.3407 90.0398 34.829 89.9923 35.3083C89.9289 35.8813 89.8494 36.469 89.7375 37.0471C89.6413 37.5318 89.5293 38.031 89.3954 38.5238C89.1225 39.5279 88.7792 40.4914 88.344 41.408C88.0863 41.9563 87.8131 42.4823 87.5269 42.9811C87.285 43.4027 87.0322 43.821 86.7685 44.1968C86.241 44.9481 85.6703 45.6474 85.0886 46.3038C84.4369 47.0382 83.7742 47.6905 83.0789 48.2938C82.4286 48.8571 81.7777 49.3755 81.1277 49.8474C79.7313 50.8748 78.3075 51.756 76.889 52.5005C75.4434 53.257 74.0028 53.8768 72.5568 54.4357C71.0836 55.0065 69.5996 55.4952 68.1207 55.9263C67.4137 56.1316 66.6905 56.352 65.9887 56.4997C64.6714 56.7814 63.3652 57.066 62.0479 57.3477C61.4703 57.473 60.9089 57.5833 60.3313 57.7086C60.1692 57.7397 60.0073 57.7707 59.8347 57.7984C57.6371 58.0764 55.4232 58.3694 53.2258 58.6474C53.1771 58.6528 53.1176 58.6551 53.0692 58.6603L52.5668 58.6896L50.7361 58.7998C49.4131 58.8626 48.0953 58.947 46.7669 59.028C46.5778 59.0312 46.3834 59.0527 46.1945 59.056C45.838 59.0693 45.4761 59.0609 45.1249 59.0559C43.7455 59.0446 42.3664 59.0318 40.9877 59.0174C40.4745 59.0039 39.9668 59.0119 39.4536 58.9984C39.2699 58.9837 39.0809 58.987 38.8973 58.9721C37.8113 58.8684 36.72 58.7433 35.6342 58.6397C34.4942 58.52 33.3381 58.4154 32.1982 58.2958C32.063 58.2756 31.928 58.2553 31.7821 58.232C31.3174 58.1344 30.8365 58.0515 30.3717 57.9536C29.0531 57.6828 27.7183 57.4267 26.3998 57.1556C26.0541 57.0929 25.7027 57.0089 25.3569 56.9464L24.7947 56.7804C23.5463 56.4313 22.3138 56.0674 21.0653 55.7186C20.5464 55.5654 20.033 55.4336 19.514 55.2804C18.9034 55.1196 18.2979 54.9015 17.7032 54.6866C16.3516 54.2086 15.011 53.6942 13.7023 53.0714C12.4424 52.4825 11.1824 51.8539 9.97061 51.1018C9.34548 50.7181 8.7304 50.3063 8.12569 49.8667C7.57747 49.4729 7.03975 49.0512 6.51291 48.602C5.95001 48.1201 5.40863 47.6053 4.89953 47.0211C4.44993 46.5136 4.00564 45.9882 3.59917 45.4145C3.15464 44.7704 2.72626 44.1117 2.34638 43.3685C1.99914 42.7136 1.68407 42.0292 1.41221 41.2783C1.11301 40.4602 0.862401 39.5974 0.69264 38.66C0.539292 37.8259 0.423692 36.9438 0.378136 36.0233C0.33782 35.0057 0.351403 33.9643 0.456767 32.8912C0.551504 31.8936 0.710907 30.8758 0.94065 29.859C1.43754 27.6986 2.20445 25.5388 3.18254 23.5796C4.10696 21.7228 5.19916 20.0139 6.38899 18.5313C7.57895 17.0488 8.84495 15.7462 10.1436 14.5721C11.4424 13.3974 12.7901 12.3359 14.1326 11.4112C15.5345 10.4449 16.9584 9.60296 18.3768 8.81887C19.8385 8.00824 21.2895 7.27309 22.7354 6.59551C23.1509 6.42234 23.5609 6.22804 23.9655 6.05167C24.0356 6.01324 24.1004 5.99279 24.1813 5.95756C24.333 5.89252 24.4841 5.832 24.6346 5.77603C26.0051 5.23405 27.3703 4.71028 28.7409 4.1683L29.9386 3.6938C30.0088 3.65541 30.0844 3.63812 30.1599 3.62111C30.3489 3.57821 30.5324 3.51416 30.7213 3.47122C32.0923 3.08719 33.4792 2.68838 34.8611 2.30754C35.2334 2.20056 35.5896 2.10858 35.9622 2.00136C36.0377 1.98435 36.0971 1.98207 36.1727 1.9651C36.3725 1.92536 36.583 1.8891 36.7827 1.84937C38.1647 1.58681 39.5577 1.32749 40.9396 1.0652L42.0247 0.853299C42.1003 0.836012 42.1705 0.837217 42.2407 0.838146L42.8563 0.783189C44.2063 0.669002 45.5725 0.54008 46.9333 0.429097C47.1601 0.417147 47.3924 0.387018 47.6191 0.375344C47.6785 0.37307 47.7542 0.355821 47.8243 0.357025C48.1701 0.380198 48.5103 0.381952 48.8614 0.387184C50.1957 0.406083 51.5136 0.440546 52.8369 0.456518C53.0583 0.462783 53.2743 0.44763 53.4797 0.468669C53.9334 0.524036 54.3818 0.55771 54.8357 0.612801C56.0405 0.751597 57.2398 0.868972 58.4446 1.00777C58.6608 1.03228 58.8607 1.0715 59.0715 1.11424C59.709 1.22356 60.3358 1.32971 60.9735 1.43879C61.5571 1.53248 62.1461 1.64701 62.7296 1.74066C62.8215 1.748 62.9241 1.75877 63.0105 1.78429C63.1294 1.81941 63.2645 1.83948 63.3834 1.8746C64.4644 2.15416 65.5399 2.41261 66.6208 2.69245C66.6965 2.71479 66.7613 2.73394 66.81 2.7285ZM48.3871 2.90917C48.4249 2.90053 48.4681 2.9133 48.5167 2.90814C42.888 2.66606 37.046 3.50477 31.1316 5.54479C31.1318 5.54395 31.132 5.54312 31.1323 5.5423C31.129 5.54401 31.1262 5.5432 31.1207 5.54158C31.083 5.54995 31.0398 5.57681 31.002 5.58545C31.0398 5.57681 31.0668 5.56496 31.1046 5.55632C28.8706 6.35614 26.6259 7.27104 24.3928 8.4258C22.1757 9.56578 19.9699 10.9065 17.7919 12.5114C16.4225 13.5269 15.0536 14.6608 13.7388 15.9292C13.0492 16.5933 12.3704 17.2999 11.6971 18.028C11.1099 18.6632 10.5067 19.3133 9.92503 20.0093C9.58041 20.4203 9.23048 20.8493 8.90205 21.2849C8.72444 21.5283 8.54154 21.7896 8.36381 22.033C8.26684 22.1622 8.16998 22.2914 8.08393 22.4235C7.83105 22.8025 7.59426 23.1665 7.34675 23.5273C6.92707 24.1526 6.51268 24.76 6.12003 25.4131C6.39381 24.7645 6.68925 24.122 6.99554 23.4827C7.12453 23.2051 7.26417 22.931 7.39316 22.6535C7.57045 22.2917 7.74774 21.93 7.93588 21.5715C8.3661 20.7912 8.79632 20.0508 9.27523 19.3442C9.74885 18.6556 10.2279 17.9884 10.7394 17.3704C11.2779 16.7013 11.8326 16.0564 12.4036 15.4758C12.9262 14.94 13.4542 14.4253 13.9986 13.9352C15.362 12.701 16.7581 11.5947 18.1707 10.5919C19.6321 9.56266 21.0893 8.63766 22.5386 7.81923C23.6063 7.21768 24.6693 6.67009 25.7267 6.1771C25.3811 6.31211 25.0306 6.46455 24.6852 6.59932C24.5503 6.6582 24.4208 6.69887 24.2859 6.75748C24.0864 6.83657 23.8813 6.93384 23.6763 7.03115C22.5726 7.53455 21.4647 8.07524 20.3533 8.65293C19.2066 9.25293 18.0556 9.89942 16.9014 10.5919C15.8173 11.238 14.755 11.9301 13.693 12.7012C11.5096 14.3243 9.35921 16.2335 7.36127 18.5817C6.32209 19.8327 5.35871 21.2246 4.48755 22.7422C4.16517 23.3233 3.85628 23.9306 3.56309 24.5597C3.27846 25.2051 3.00471 25.854 2.74704 26.5274C2.51097 27.1676 2.2913 27.8322 2.10926 28.4886C1.9326 29.087 1.79356 29.6772 1.66004 30.2883C1.54808 30.8668 1.44693 31.4481 1.38349 32.0211C1.30962 32.6211 1.257 33.2115 1.22597 33.7887C1.21127 34.3958 1.20737 35.0059 1.24669 35.5894C1.28598 36.2125 1.34158 36.8203 1.42934 37.3986C1.5335 38.0012 1.65388 38.5889 1.80651 39.1467C1.97974 39.7424 2.17403 40.3064 2.3887 40.8369C2.76657 41.7228 3.18519 42.5378 3.64243 43.2777C4.10114 44.006 4.59128 44.6706 5.11111 45.2692C5.64191 45.8598 6.17801 46.4324 6.74646 46.9354C7.30407 47.4352 7.8993 47.887 8.4891 48.3177C9.13832 48.7855 9.79305 49.235 10.4747 49.6334C11.1021 50.0161 11.7404 50.3621 12.3946 50.6936C13.6439 51.3187 14.9201 51.8926 16.2174 52.3942C16.8662 52.6251 17.5097 52.8741 18.1636 53.087C18.4826 53.201 18.8177 53.3 19.1368 53.4137C19.3043 53.4829 19.4665 53.5309 19.6395 53.5819L22.423 54.3447L25.6497 55.2383C25.801 55.283 25.9469 55.3062 26.0928 55.3295C26.5575 55.4274 27.0384 55.5103 27.5033 55.6079L31.475 56.3665C31.7991 56.4229 32.1288 56.5005 32.4639 56.5598C32.5071 56.5726 32.5557 56.5674 32.599 56.5802C32.7502 56.5853 32.8961 56.6085 33.0473 56.6139C35.1759 56.8085 37.2991 57.0213 39.4276 57.2159C41.1829 57.2019 42.9383 57.2269 44.6882 57.2311C45.1799 57.2382 45.6876 57.2303 46.179 57.2374C46.3196 57.2393 46.4708 57.2446 46.6165 57.2285C47.7993 57.1634 48.9765 57.0774 50.1592 57.0123C51.2339 56.9551 52.3031 56.8762 53.3778 56.8188C53.556 56.8123 53.7557 56.7728 53.9393 56.7481C54.5278 56.6654 55.1218 56.6043 55.7103 56.5215C57.044 56.3434 58.3615 56.1803 59.6951 56.0022C59.8949 55.9625 60.0838 55.9592 60.2728 55.9165L61.5522 55.6435L65.7303 54.7474C66.0705 54.6702 66.4052 54.6112 66.7507 54.516C68.1918 54.1329 69.6329 53.7105 71.0846 53.2122C71.948 52.9151 72.8113 52.5783 73.68 52.2236C74.484 51.8891 75.2932 51.5363 76.1078 51.126C77.7315 50.3236 79.3548 49.3636 80.9452 48.1964C81.6892 47.6272 82.4223 47.0549 83.1498 46.3821C83.5216 46.0385 83.8826 45.6914 84.2435 45.305C84.5142 45.0154 84.7836 44.7135 85.0514 44.3998C85.4017 43.9968 85.7456 43.5509 86.0797 43.0666C86.365 42.6578 86.623 42.2213 86.8813 41.7847C87.1193 41.3697 87.3443 40.9277 87.5531 40.4646C87.7142 40.1178 87.8537 39.7648 87.9934 39.4115C88.1328 39.0187 88.2561 38.6411 88.3577 38.257C88.4647 37.8547 88.5664 37.4707 88.6464 37.0799C88.7215 36.7076 88.7837 36.3373 88.8327 35.9716C88.8813 35.5675 88.9164 35.1695 88.9377 34.78C88.9525 34.1728 88.951 33.5807 88.9064 33.0154C88.8724 32.414 88.8007 31.8209 88.7237 31.2461C88.4384 29.5053 87.9215 27.9523 87.3291 26.4956C86.9704 25.6405 86.5688 24.8513 86.1456 24.0953C85.7008 23.333 85.2452 22.5675 84.7735 21.8563C83.8247 20.4126 82.806 19.0865 81.7496 17.8477C80.0866 15.9171 78.3161 14.1914 76.4273 12.7069C75.4641 11.949 74.4686 11.2608 73.4622 10.6087C72.4398 9.97168 71.4014 9.38905 70.3522 8.84253L70.3545 8.84319C69.9366 8.64479 69.5148 8.43113 69.0976 8.23534C68.9029 8.13855 68.6921 8.0565 68.4865 7.9565C68.3838 7.90637 68.2865 7.83802 68.1784 7.8061C68.0054 7.75504 67.8378 7.68603 67.6702 7.61676C66.8592 7.29839 66.0537 7.00144 65.2427 6.68308C64.5129 6.40848 63.7991 6.11883 63.0801 5.84743C62.799 5.72481 62.5017 5.65684 62.1991 5.56749C60.9289 5.21225 59.6749 4.84199 58.4156 4.48968C58.0318 4.39616 57.6535 4.28446 57.2751 4.17273C57.2211 4.15678 57.1724 4.16223 57.1292 4.14945C56.9725 4.12301 56.805 4.09305 56.6483 4.06657L52.7902 3.40062C52.3634 3.33399 51.9417 3.24911 51.5151 3.18194L51.4394 3.15959C51.099 3.1182 50.7694 3.08029 50.4237 3.05685C49.7483 2.99545 49.057 2.94915 48.3871 2.90917ZM70.3954 8.86248C70.4169 8.87481 70.4404 8.88836 70.4657 8.89583L70.3953 8.86245L70.3954 8.86248ZM31.1475 5.52997C31.1475 5.52997 31.1377 5.5271 31.1321 5.54254C31.1372 5.53959 31.1424 5.53536 31.1475 5.52997ZM70.3542 8.8434L70.3951 8.86268C70.3819 8.85493 70.3683 8.8485 70.3543 8.84343L70.3542 8.8434ZM81.6845 17.7895C81.6778 17.7824 81.671 17.7756 81.6682 17.7649L81.6845 17.7895ZM81.7008 17.8138L81.6845 17.7895C81.6912 17.7947 81.6968 17.803 81.7008 17.8138ZM9.86052 20.0886C9.86928 20.0769 9.87828 20.0664 9.88741 20.0573L9.86052 20.0886ZM9.83356 20.1203L9.86052 20.0886C9.85096 20.1008 9.84161 20.1127 9.83356 20.1203ZM4.46048 22.754C4.45243 22.7615 4.44561 22.7745 4.43887 22.7872L4.46048 22.754ZM4.43887 22.7872L4.41748 22.8202C4.42525 22.8119 4.43259 22.8007 4.43879 22.7875L4.43887 22.7872ZM2.34511 40.7058C2.35059 40.7272 2.36131 40.7304 2.35593 40.7486L2.34511 40.7058ZM31.0885 5.57137C31.1046 5.55632 31.1046 5.55632 31.1154 5.55952L31.0885 5.57137Z"/>
</mask>
<path d="M66.81 2.7285C67.0153 2.78913 67.2153 2.86798 67.4208 2.92866L68.3776 3.27026C68.9561 3.5002 69.5292 3.74832 70.0755 4.04765C70.6975 4.36932 71.3142 4.74853 71.8502 5.28155C72.3266 5.73786 72.7871 6.24829 73.2365 6.75604C72.9984 6.52761 72.7709 6.30294 72.5328 6.07479C72.2837 5.84343 72.0455 5.61528 71.7911 5.40214C71.5367 5.189 71.2823 4.97586 71.001 4.81389C70.7631 4.66472 70.5197 4.53374 70.2762 4.40276L70.2979 4.40916C69.5516 4.03099 68.7731 3.72219 67.9784 3.46777C67.6054 3.33813 67.227 3.2264 66.8487 3.1147L66.4703 3.00296C65.8651 2.86358 65.2759 2.70943 64.6707 2.57004C64.1194 2.44688 63.5627 2.3023 63.0115 2.17886C62.7846 2.11185 62.536 2.07776 62.2983 2.04719C61.0825 1.86556 59.8722 1.66602 58.6618 1.46645C58.4727 1.43044 58.2783 1.41233 58.0837 1.39449L56.3009 1.22306C55.296 1.12348 54.3021 1.02714 53.2971 0.927561C52.3519 0.905012 51.4012 0.900365 50.4506 0.89572C49.8188 0.886495 49.1705 0.892524 48.5387 0.883299L47.9391 0.883886L47.7608 0.890357C45.8331 1.09022 43.9001 1.26869 41.9723 1.46883C41.9237 1.47399 41.8643 1.47623 41.7995 1.49672C44.1827 1.23103 46.5266 1.15337 48.8258 1.26392C49.5659 1.30482 50.3113 1.36739 51.0461 1.42651C51.354 1.45832 51.6674 1.47192 51.97 1.52167C52.3968 1.58858 52.8183 1.67373 53.2451 1.74063L57.1032 2.40631L57.6058 2.49559C57.6544 2.49012 57.6869 2.49972 57.73 2.51246C58.1138 2.60626 58.4921 2.71796 58.8705 2.82969C60.1406 3.1849 61.3946 3.55515 62.654 3.90719L63.3459 4.11148C63.6918 4.25324 64.0325 4.37334 64.3677 4.5119C65.5896 4.99089 66.8059 5.44875 68.0278 5.92774C68.2008 5.97884 68.3791 6.05128 68.5467 6.12056L69.2606 6.44957C70.5205 7.03851 71.7698 7.6636 72.9922 8.3795C75.4209 9.82633 77.7477 11.5389 79.8541 13.6398C80.8944 14.649 81.9021 15.7357 82.876 16.8985C83.8403 18.051 84.7779 19.2544 85.6345 20.5725C86.0742 21.2376 86.5009 21.929 86.9143 22.6462C87.2887 23.289 87.6522 23.9683 87.978 24.6958C88.3253 25.4417 88.6428 26.2396 88.9293 27.0866C89.1958 27.8554 89.4409 28.6575 89.6105 29.5162C89.7965 30.4386 89.9447 31.4092 90.0121 32.4153C90.0348 32.8952 90.0577 33.3751 90.0536 33.8669C90.0547 34.3407 90.0398 34.829 89.9923 35.3083C89.9289 35.8813 89.8494 36.469 89.7375 37.0471C89.6413 37.5318 89.5293 38.031 89.3954 38.5238C89.1225 39.5279 88.7792 40.4914 88.344 41.408C88.0863 41.9563 87.8131 42.4823 87.5269 42.9811C87.285 43.4027 87.0322 43.821 86.7685 44.1968C86.241 44.9481 85.6703 45.6474 85.0886 46.3038C84.4369 47.0382 83.7742 47.6905 83.0789 48.2938C82.4286 48.8571 81.7777 49.3755 81.1277 49.8474C79.7313 50.8748 78.3075 51.756 76.889 52.5005C75.4434 53.257 74.0028 53.8768 72.5568 54.4357C71.0836 55.0065 69.5996 55.4952 68.1207 55.9263C67.4137 56.1316 66.6905 56.352 65.9887 56.4997C64.6714 56.7814 63.3652 57.066 62.0479 57.3477C61.4703 57.473 60.9089 57.5833 60.3313 57.7086C60.1692 57.7397 60.0073 57.7707 59.8347 57.7984C57.6371 58.0764 55.4232 58.3694 53.2258 58.6474C53.1771 58.6528 53.1176 58.6551 53.0692 58.6603L52.5668 58.6896L50.7361 58.7998C49.4131 58.8626 48.0953 58.947 46.7669 59.028C46.5778 59.0312 46.3834 59.0527 46.1945 59.056C45.838 59.0693 45.4761 59.0609 45.1249 59.0559C43.7455 59.0446 42.3664 59.0318 40.9877 59.0174C40.4745 59.0039 39.9668 59.0119 39.4536 58.9984C39.2699 58.9837 39.0809 58.987 38.8973 58.9721C37.8113 58.8684 36.72 58.7433 35.6342 58.6397C34.4942 58.52 33.3381 58.4154 32.1982 58.2958C32.063 58.2756 31.928 58.2553 31.7821 58.232C31.3174 58.1344 30.8365 58.0515 30.3717 57.9536C29.0531 57.6828 27.7183 57.4267 26.3998 57.1556C26.0541 57.0929 25.7027 57.0089 25.3569 56.9464L24.7947 56.7804C23.5463 56.4313 22.3138 56.0674 21.0653 55.7186C20.5464 55.5654 20.033 55.4336 19.514 55.2804C18.9034 55.1196 18.2979 54.9015 17.7032 54.6866C16.3516 54.2086 15.011 53.6942 13.7023 53.0714C12.4424 52.4825 11.1824 51.8539 9.97061 51.1018C9.34548 50.7181 8.7304 50.3063 8.12569 49.8667C7.57747 49.4729 7.03975 49.0512 6.51291 48.602C5.95001 48.1201 5.40863 47.6053 4.89953 47.0211C4.44993 46.5136 4.00564 45.9882 3.59917 45.4145C3.15464 44.7704 2.72626 44.1117 2.34638 43.3685C1.99914 42.7136 1.68407 42.0292 1.41221 41.2783C1.11301 40.4602 0.862401 39.5974 0.69264 38.66C0.539292 37.8259 0.423692 36.9438 0.378136 36.0233C0.33782 35.0057 0.351403 33.9643 0.456767 32.8912C0.551504 31.8936 0.710907 30.8758 0.94065 29.859C1.43754 27.6986 2.20445 25.5388 3.18254 23.5796C4.10696 21.7228 5.19916 20.0139 6.38899 18.5313C7.57895 17.0488 8.84495 15.7462 10.1436 14.5721C11.4424 13.3974 12.7901 12.3359 14.1326 11.4112C15.5345 10.4449 16.9584 9.60296 18.3768 8.81887C19.8385 8.00824 21.2895 7.27309 22.7354 6.59551C23.1509 6.42234 23.5609 6.22804 23.9655 6.05167C24.0356 6.01324 24.1004 5.99279 24.1813 5.95756C24.333 5.89252 24.4841 5.832 24.6346 5.77603C26.0051 5.23405 27.3703 4.71028 28.7409 4.1683L29.9386 3.6938C30.0088 3.65541 30.0844 3.63812 30.1599 3.62111C30.3489 3.57821 30.5324 3.51416 30.7213 3.47122C32.0923 3.08719 33.4792 2.68838 34.8611 2.30754C35.2334 2.20056 35.5896 2.10858 35.9622 2.00136C36.0377 1.98435 36.0971 1.98207 36.1727 1.9651C36.3725 1.92536 36.583 1.8891 36.7827 1.84937C38.1647 1.58681 39.5577 1.32749 40.9396 1.0652L42.0247 0.853299C42.1003 0.836012 42.1705 0.837217 42.2407 0.838146L42.8563 0.783189C44.2063 0.669002 45.5725 0.54008 46.9333 0.429097C47.1601 0.417147 47.3924 0.387018 47.6191 0.375344C47.6785 0.37307 47.7542 0.355821 47.8243 0.357025C48.1701 0.380198 48.5103 0.381952 48.8614 0.387184C50.1957 0.406083 51.5136 0.440546 52.8369 0.456518C53.0583 0.462783 53.2743 0.44763 53.4797 0.468669C53.9334 0.524036 54.3818 0.55771 54.8357 0.612801C56.0405 0.751597 57.2398 0.868972 58.4446 1.00777C58.6608 1.03228 58.8607 1.0715 59.0715 1.11424C59.709 1.22356 60.3358 1.32971 60.9735 1.43879C61.5571 1.53248 62.1461 1.64701 62.7296 1.74066C62.8215 1.748 62.9241 1.75877 63.0105 1.78429C63.1294 1.81941 63.2645 1.83948 63.3834 1.8746C64.4644 2.15416 65.5399 2.41261 66.6208 2.69245C66.6965 2.71479 66.7613 2.73394 66.81 2.7285ZM48.3871 2.90917C48.4249 2.90053 48.4681 2.9133 48.5167 2.90814C42.888 2.66606 37.046 3.50477 31.1316 5.54479C31.1318 5.54395 31.132 5.54312 31.1323 5.5423C31.129 5.54401 31.1262 5.5432 31.1207 5.54158C31.083 5.54995 31.0398 5.57681 31.002 5.58545C31.0398 5.57681 31.0668 5.56496 31.1046 5.55632C28.8706 6.35614 26.6259 7.27104 24.3928 8.4258C22.1757 9.56578 19.9699 10.9065 17.7919 12.5114C16.4225 13.5269 15.0536 14.6608 13.7388 15.9292C13.0492 16.5933 12.3704 17.2999 11.6971 18.028C11.1099 18.6632 10.5067 19.3133 9.92503 20.0093C9.58041 20.4203 9.23048 20.8493 8.90205 21.2849C8.72444 21.5283 8.54154 21.7896 8.36381 22.033C8.26684 22.1622 8.16998 22.2914 8.08393 22.4235C7.83105 22.8025 7.59426 23.1665 7.34675 23.5273C6.92707 24.1526 6.51268 24.76 6.12003 25.4131C6.39381 24.7645 6.68925 24.122 6.99554 23.4827C7.12453 23.2051 7.26417 22.931 7.39316 22.6535C7.57045 22.2917 7.74774 21.93 7.93588 21.5715C8.3661 20.7912 8.79632 20.0508 9.27523 19.3442C9.74885 18.6556 10.2279 17.9884 10.7394 17.3704C11.2779 16.7013 11.8326 16.0564 12.4036 15.4758C12.9262 14.94 13.4542 14.4253 13.9986 13.9352C15.362 12.701 16.7581 11.5947 18.1707 10.5919C19.6321 9.56266 21.0893 8.63766 22.5386 7.81923C23.6063 7.21768 24.6693 6.67009 25.7267 6.1771C25.3811 6.31211 25.0306 6.46455 24.6852 6.59932C24.5503 6.6582 24.4208 6.69887 24.2859 6.75748C24.0864 6.83657 23.8813 6.93384 23.6763 7.03115C22.5726 7.53455 21.4647 8.07524 20.3533 8.65293C19.2066 9.25293 18.0556 9.89942 16.9014 10.5919C15.8173 11.238 14.755 11.9301 13.693 12.7012C11.5096 14.3243 9.35921 16.2335 7.36127 18.5817C6.32209 19.8327 5.35871 21.2246 4.48755 22.7422C4.16517 23.3233 3.85628 23.9306 3.56309 24.5597C3.27846 25.2051 3.00471 25.854 2.74704 26.5274C2.51097 27.1676 2.2913 27.8322 2.10926 28.4886C1.9326 29.087 1.79356 29.6772 1.66004 30.2883C1.54808 30.8668 1.44693 31.4481 1.38349 32.0211C1.30962 32.6211 1.257 33.2115 1.22597 33.7887C1.21127 34.3958 1.20737 35.0059 1.24669 35.5894C1.28598 36.2125 1.34158 36.8203 1.42934 37.3986C1.5335 38.0012 1.65388 38.5889 1.80651 39.1467C1.97974 39.7424 2.17403 40.3064 2.3887 40.8369C2.76657 41.7228 3.18519 42.5378 3.64243 43.2777C4.10114 44.006 4.59128 44.6706 5.11111 45.2692C5.64191 45.8598 6.17801 46.4324 6.74646 46.9354C7.30407 47.4352 7.8993 47.887 8.4891 48.3177C9.13832 48.7855 9.79305 49.235 10.4747 49.6334C11.1021 50.0161 11.7404 50.3621 12.3946 50.6936C13.6439 51.3187 14.9201 51.8926 16.2174 52.3942C16.8662 52.6251 17.5097 52.8741 18.1636 53.087C18.4826 53.201 18.8177 53.3 19.1368 53.4137C19.3043 53.4829 19.4665 53.5309 19.6395 53.5819L22.423 54.3447L25.6497 55.2383C25.801 55.283 25.9469 55.3062 26.0928 55.3295C26.5575 55.4274 27.0384 55.5103 27.5033 55.6079L31.475 56.3665C31.7991 56.4229 32.1288 56.5005 32.4639 56.5598C32.5071 56.5726 32.5557 56.5674 32.599 56.5802C32.7502 56.5853 32.8961 56.6085 33.0473 56.6139C35.1759 56.8085 37.2991 57.0213 39.4276 57.2159C41.1829 57.2019 42.9383 57.2269 44.6882 57.2311C45.1799 57.2382 45.6876 57.2303 46.179 57.2374C46.3196 57.2393 46.4708 57.2446 46.6165 57.2285C47.7993 57.1634 48.9765 57.0774 50.1592 57.0123C51.2339 56.9551 52.3031 56.8762 53.3778 56.8188C53.556 56.8123 53.7557 56.7728 53.9393 56.7481C54.5278 56.6654 55.1218 56.6043 55.7103 56.5215C57.044 56.3434 58.3615 56.1803 59.6951 56.0022C59.8949 55.9625 60.0838 55.9592 60.2728 55.9165L61.5522 55.6435L65.7303 54.7474C66.0705 54.6702 66.4052 54.6112 66.7507 54.516C68.1918 54.1329 69.6329 53.7105 71.0846 53.2122C71.948 52.9151 72.8113 52.5783 73.68 52.2236C74.484 51.8891 75.2932 51.5363 76.1078 51.126C77.7315 50.3236 79.3548 49.3636 80.9452 48.1964C81.6892 47.6272 82.4223 47.0549 83.1498 46.3821C83.5216 46.0385 83.8826 45.6914 84.2435 45.305C84.5142 45.0154 84.7836 44.7135 85.0514 44.3998C85.4017 43.9968 85.7456 43.5509 86.0797 43.0666C86.365 42.6578 86.623 42.2213 86.8813 41.7847C87.1193 41.3697 87.3443 40.9277 87.5531 40.4646C87.7142 40.1178 87.8537 39.7648 87.9934 39.4115C88.1328 39.0187 88.2561 38.6411 88.3577 38.257C88.4647 37.8547 88.5664 37.4707 88.6464 37.0799C88.7215 36.7076 88.7837 36.3373 88.8327 35.9716C88.8813 35.5675 88.9164 35.1695 88.9377 34.78C88.9525 34.1728 88.951 33.5807 88.9064 33.0154C88.8724 32.414 88.8007 31.8209 88.7237 31.2461C88.4384 29.5053 87.9215 27.9523 87.3291 26.4956C86.9704 25.6405 86.5688 24.8513 86.1456 24.0953C85.7008 23.333 85.2452 22.5675 84.7735 21.8563C83.8247 20.4126 82.806 19.0865 81.7496 17.8477C80.0866 15.9171 78.3161 14.1914 76.4273 12.7069C75.4641 11.949 74.4686 11.2608 73.4622 10.6087C72.4398 9.97168 71.4014 9.38905 70.3522 8.84253L70.3545 8.84319C69.9366 8.64479 69.5148 8.43113 69.0976 8.23534C68.9029 8.13855 68.6921 8.0565 68.4865 7.9565C68.3838 7.90637 68.2865 7.83802 68.1784 7.8061C68.0054 7.75504 67.8378 7.68603 67.6702 7.61676C66.8592 7.29839 66.0537 7.00144 65.2427 6.68308C64.5129 6.40848 63.7991 6.11883 63.0801 5.84743C62.799 5.72481 62.5017 5.65684 62.1991 5.56749C60.9289 5.21225 59.6749 4.84199 58.4156 4.48968C58.0318 4.39616 57.6535 4.28446 57.2751 4.17273C57.2211 4.15678 57.1724 4.16223 57.1292 4.14945C56.9725 4.12301 56.805 4.09305 56.6483 4.06657L52.7902 3.40062C52.3634 3.33399 51.9417 3.24911 51.5151 3.18194L51.4394 3.15959C51.099 3.1182 50.7694 3.08029 50.4237 3.05685C49.7483 2.99545 49.057 2.94915 48.3871 2.90917ZM70.3954 8.86248C70.4169 8.87481 70.4404 8.88836 70.4657 8.89583L70.3953 8.86245L70.3954 8.86248ZM31.1475 5.52997C31.1475 5.52997 31.1377 5.5271 31.1321 5.54254C31.1372 5.53959 31.1424 5.53536 31.1475 5.52997ZM70.3542 8.8434L70.3951 8.86268C70.3819 8.85493 70.3683 8.8485 70.3543 8.84343L70.3542 8.8434ZM81.6845 17.7895C81.6778 17.7824 81.671 17.7756 81.6682 17.7649L81.6845 17.7895ZM81.7008 17.8138L81.6845 17.7895C81.6912 17.7947 81.6968 17.803 81.7008 17.8138ZM9.86052 20.0886C9.86928 20.0769 9.87828 20.0664 9.88741 20.0573L9.86052 20.0886ZM9.83356 20.1203L9.86052 20.0886C9.85096 20.1008 9.84161 20.1127 9.83356 20.1203ZM4.46048 22.754C4.45243 22.7615 4.44561 22.7745 4.43887 22.7872L4.46048 22.754ZM4.43887 22.7872L4.41748 22.8202C4.42525 22.8119 4.43259 22.8007 4.43879 22.7875L4.43887 22.7872ZM2.34511 40.7058C2.35059 40.7272 2.36131 40.7304 2.35593 40.7486L2.34511 40.7058ZM31.0885 5.57137C31.1046 5.55632 31.1046 5.55632 31.1154 5.55952L31.0885 5.57137Z" fill="#F37060" stroke="#F37060" stroke-width="2.09261" mask="url(#path-1-inside-1_480_1192)"/>
</svg>
