<svg width="17" height="22" viewBox="0 0 17 22" fill="none" xmlns="http://www.w3.org/2000/svg">
<path fill-rule="evenodd" clip-rule="evenodd" d="M16.0999 11.2959C15.649 8.16078 13.6928 4.43626 10.9761 2.39138C9.863 1.5537 8.50386 1.00936 7.25275 0.885024C4.16201 0.576525 1.40785 3.15292 0.582611 5.97953C-0.548383 9.74212 0.496032 14.7644 4.17839 18.5658C4.17878 18.5662 4.17956 18.567 4.17995 18.5674C4.18073 18.5689 4.18151 18.5701 4.18268 18.5712C4.1858 18.574 4.18853 18.5763 4.19165 18.579C4.4198 18.8114 4.86479 19.1774 5.21501 19.4214C6.7243 20.5866 8.21253 21.3236 10.4086 21.3442C12.5489 21.3641 13.13 20.3438 12.2404 18.4481C11.1617 16.1503 9.28308 16.8788 7.3834 14.614C6.79294 13.9096 6.31363 13.1037 5.93728 12.254C4.38236 8.74436 4.89638 5.13912 7.08544 4.20236C9.27489 3.2652 11.9612 5.20945 13.5165 8.7191C13.91 9.6073 14.1974 10.3921 14.3659 11.2399C14.5492 12.1608 14.9271 12.2738 15.4443 12.5831C16.0515 12.946 16.2484 12.3286 16.0999 11.2959Z" fill="white"/>
<path fill-rule="evenodd" clip-rule="evenodd" d="M7.95573 8.46909C8.84727 8.08793 10.0832 8.93688 10.7165 10.3659C11.3495 11.795 11.1401 13.2625 10.2489 13.6444C9.35739 14.0252 8.12148 13.1762 7.48852 11.7472C6.85555 10.3181 7.0642 8.85063 7.95573 8.46909Z" fill="white"/>
<path fill-rule="evenodd" clip-rule="evenodd" d="M13.7309 18.7967C14.1342 19.641 14.5616 19.371 14.5418 18.5193C14.5293 17.987 14.5102 17.8864 14.4848 17.3195C14.4618 16.8066 14.4891 16.279 15.0004 16.1628C15.1369 16.1321 15.2675 16.1119 15.5335 16.0513C15.7734 15.9969 15.9056 15.9468 15.9454 15.8625C16.0339 15.674 15.8498 15.4514 15.4801 15.2672C14.7859 14.921 14.0242 14.5558 13.1526 14.1879C12.2614 13.8106 11.9331 13.6264 11.7618 13.7795C11.6039 13.9206 11.7739 14.2691 12.24 15.3838C12.7755 16.6656 13.5024 18.2998 13.7309 18.7967Z" fill="white"/>
<path fill-rule="evenodd" clip-rule="evenodd" d="M10.6798 2.18728C11.1669 2.50821 11.801 2.99155 12.3193 3.50481C14.3399 5.50733 15.6951 8.48159 16.0996 11.2946C16.1432 11.5977 16.222 12.1871 16.217 12.5294C16.2041 13.355 15.91 13.9918 15.4167 13.9118C14.8524 13.8197 14.5622 13.3356 14.5396 12.7295C14.5212 12.2325 14.4452 11.6404 14.3656 11.2386C14.1972 10.3909 13.9097 9.60601 13.5162 8.71782C11.9613 5.20816 9.27421 3.26469 7.08515 4.20107C5.95572 4.68363 5.37696 5.96852 5.18469 7.1388C4.7085 10.0346 5.93037 13.3146 8.5063 15.6552C2.85991 12.5309 2.25698 4.7695 5.24865 2.2646C6.71153 1.03915 8.37097 0.665765 10.6798 2.18728Z" fill="white"/>
</svg>
