<svg width="14" height="12" viewBox="0 0 14 12" fill="none" xmlns="http://www.w3.org/2000/svg">
<path fill-rule="evenodd" clip-rule="evenodd" d="M0.812561 5.79419C0.812561 5.37998 1.14835 5.04419 1.56256 5.04419L12.8126 5.04419C13.2268 5.04419 13.5626 5.37998 13.5626 5.79419C13.5626 6.2084 13.2268 6.54419 12.8126 6.54419L1.56256 6.54419C1.14835 6.54419 0.812561 6.2084 0.812561 5.79419Z" fill="white"/>
<path fill-rule="evenodd" clip-rule="evenodd" d="M7.61466 0.920028C7.81119 0.555408 8.2661 0.419147 8.63072 0.61568L8.27486 1.27588C8.63072 0.61568 8.63057 0.615599 8.63072 0.61568L8.63246 0.616622L8.63586 0.618461L8.64748 0.624794L8.68939 0.647867C8.72533 0.667787 8.77696 0.696692 8.84203 0.73389C8.97211 0.808245 9.15635 0.915983 9.37679 1.05157C9.81623 1.32187 10.4063 1.70702 11.0002 2.16266C11.5896 2.6149 12.2071 3.15505 12.6841 3.73884C13.1466 4.30483 13.5624 5.01489 13.5624 5.79313C13.5624 6.57159 13.1468 7.28192 12.6843 7.84826C12.2073 8.43235 11.5897 8.97276 11.0003 9.42519C10.4064 9.88104 9.81634 10.2663 9.37689 10.5367C9.15645 10.6724 8.97221 10.7802 8.84212 10.8545C8.77705 10.8917 8.72542 10.9207 8.68948 10.9406L8.64757 10.9637L8.63594 10.97L8.63255 10.9718L8.63147 10.9724C8.63132 10.9725 8.6308 10.9728 8.27486 10.3126L8.63147 10.9724C8.26687 11.169 7.81129 11.0332 7.61471 10.6686C7.41816 10.304 7.55429 9.8492 7.91875 9.65257C7.91881 9.65254 7.91869 9.6526 7.91875 9.65257L7.92036 9.65169L7.92819 9.64743L7.96217 9.62871C7.99269 9.61179 8.03855 9.58612 8.09755 9.55238C8.21561 9.48487 8.38586 9.38532 8.59081 9.25921C9.00214 9.00611 9.54642 8.65023 10.0869 8.23532C10.6319 7.81701 11.1487 7.35711 11.5225 6.89944C11.9107 6.42403 12.0624 6.05117 12.0624 5.79313C12.0624 5.53563 11.9109 5.16315 11.5226 4.68796C11.1489 4.23055 10.632 3.77087 10.0871 3.35273C9.54654 2.93799 9.00225 2.58224 8.59091 2.32922C8.38595 2.20316 8.2157 2.10364 8.09764 2.03615C8.03864 2.00243 7.99278 1.97676 7.96226 1.95984L7.92828 1.94113L7.92045 1.93687L7.91901 1.93608C7.55452 1.7395 7.41816 1.28459 7.61466 0.920028ZM7.91875 9.65257C7.91881 9.65254 7.91869 9.6526 7.91875 9.65257Z" fill="white"/>
</svg>
