<svg width="20" height="20" viewBox="0 0 20 20" fill="none" xmlns="http://www.w3.org/2000/svg">
<path fill-rule="evenodd" clip-rule="evenodd" d="M7.37598 10.1006C7.37598 9.68637 7.71176 9.35059 8.12598 9.35059H18.1601C18.5744 9.35059 18.9101 9.68637 18.9101 10.1006C18.9101 10.5148 18.5744 10.8506 18.1601 10.8506H8.12598C7.71176 10.8506 7.37598 10.5148 7.37598 10.1006Z" fill="white"/>
<path fill-rule="evenodd" clip-rule="evenodd" d="M15.1898 7.14135C15.4821 6.84786 15.9569 6.84688 16.2504 7.13918L18.6904 9.56918C18.8317 9.70992 18.9112 9.90115 18.9112 10.1006C18.9112 10.3 18.8317 10.4913 18.6904 10.632L16.2504 13.062C15.9569 13.3543 15.4821 13.3533 15.1898 13.0598C14.8975 12.7663 14.8985 12.2915 15.192 11.9992L17.0983 10.1006L15.192 8.20201C14.8985 7.90972 14.8975 7.43485 15.1898 7.14135Z" fill="white"/>
<path fill-rule="evenodd" clip-rule="evenodd" d="M11.8334 3.80874C12.4364 4.25554 12.7551 4.99312 12.8873 6.42707C12.9253 6.83954 13.2905 7.14309 13.7029 7.10507C14.1154 7.06704 14.419 6.70185 14.3809 6.28939C14.2381 4.74001 13.861 3.44426 12.7265 2.60356C11.6459 1.80285 10.034 1.54156 7.80077 1.54156C4.8427 1.54156 2.95603 2.00186 1.9839 3.58442C1.52403 4.33306 1.3251 5.2528 1.22896 6.28615C1.13326 7.31466 1.13327 8.54814 1.13327 9.96858V10.0312C1.13327 11.4517 1.13326 12.6851 1.22896 13.7136C1.3251 14.747 1.52403 15.6667 1.9839 16.4154C2.95603 17.9979 4.8427 18.4582 7.80077 18.4582C10.034 18.4582 11.6459 18.1969 12.7265 17.3962C13.861 16.5555 14.2381 15.2598 14.3809 13.7104C14.419 13.2979 14.1154 12.9328 13.7029 12.8947C13.2905 12.8567 12.9253 13.1603 12.8873 13.5727C12.7551 15.0067 12.4364 15.7443 11.8334 16.1911C11.1765 16.6779 10.0092 16.9582 7.80077 16.9582C4.84135 16.9582 3.76927 16.456 3.26202 15.6303C2.9822 15.1747 2.81129 14.5288 2.72251 13.5747C2.63398 12.6233 2.63327 11.4579 2.63327 9.9999C2.63327 8.54187 2.63398 7.37654 2.72251 6.42511C2.81129 5.47095 2.9822 4.82507 3.26202 4.36954C3.76927 3.54377 4.84135 3.04156 7.80077 3.04156C10.0092 3.04156 11.1765 3.32194 11.8334 3.80874Z" fill="white"/>
</svg>
